<svg width="25" height="24" viewBox="0 0 25 24" fill="none" xmlns="http://www.w3.org/2000/svg">
<path d="M22.1602 10.44L21.1802 14.62C20.3402 18.23 18.6802 19.69 15.5602 19.39C15.0602 19.35 14.5202 19.26 13.9402 19.12L12.2602 18.72C8.09018 17.73 6.80018 15.67 7.78018 11.49L8.76018 7.30001C8.96018 6.45001 9.20018 5.71001 9.50018 5.10001C10.6702 2.68001 12.6602 2.03001 16.0002 2.82001L17.6702 3.21001C21.8602 4.19001 23.1402 6.26001 22.1602 10.44Z" stroke="#7F56D9" stroke-width="2" stroke-linecap="round" stroke-linejoin="round"/>
<path d="M15.5603 19.39C14.9403 19.81 14.1603 20.16 13.2103 20.47L11.6303 20.99C7.66034 22.27 5.57034 21.2 4.28034 17.23L3.00034 13.28C1.72034 9.30998 2.78034 7.20998 6.75034 5.92998L8.33034 5.40998C8.74034 5.27998 9.13034 5.16998 9.50034 5.09998C9.20034 5.70998 8.96034 6.44998 8.76034 7.29998L7.78034 11.49C6.80034 15.67 8.09034 17.73 12.2603 18.72L13.9403 19.12C14.5203 19.26 15.0603 19.35 15.5603 19.39Z" stroke="#7F56D9" stroke-width="2" stroke-linecap="round" stroke-linejoin="round"/>
<path d="M13.1406 8.53003L17.9906 9.76003" stroke="#7F56D9" stroke-width="2" stroke-linecap="round" stroke-linejoin="round"/>
<path d="M12.1602 12.4L15.0602 13.14" stroke="#7F56D9" stroke-width="2" stroke-linecap="round" stroke-linejoin="round"/>
</svg>
