<svg width="24" height="24" viewBox="0 0 24 24" fill="none" xmlns="http://www.w3.org/2000/svg">
<path d="M12.0001 7.89001L10.9301 9.75001C10.6901 10.16 10.8901 10.5 11.3601 10.5H12.6301C13.1101 10.5 13.3001 10.84 13.0601 11.25L12.0001 13.11" stroke="#7F56D9" stroke-width="2" stroke-linecap="round" stroke-linejoin="round"/>
<path d="M8.29938 18.0402V16.8802C5.99938 15.4902 4.10938 12.7802 4.10938 9.90018C4.10938 4.95018 8.65938 1.07018 13.7994 2.19018C16.0594 2.69018 18.0394 4.19018 19.0694 6.26018C21.1594 10.4602 18.9594 14.9202 15.7294 16.8702V18.0302C15.7294 18.3202 15.8394 18.9902 14.7694 18.9902H9.25938C8.15938 19.0002 8.29938 18.5702 8.29938 18.0402Z" stroke="#7F56D9" stroke-width="2" stroke-linecap="round" stroke-linejoin="round"/>
<path d="M8.5 22C10.79 21.35 13.21 21.35 15.5 22" stroke="#7F56D9" stroke-width="2" stroke-linecap="round" stroke-linejoin="round"/>
</svg>
